<svg xmlns="http://www.w3.org/2000/svg" viewBox="0 0 128 128">
  <title>1. 道具箱と差し金</title>
  <rect width="128" height="128" rx="24" fill="#243447"/>
  <!-- 差し金（L 字の定規）: 箱の中から斜めに突き出す -->
  <g transform="rotate(-24 64 64)">
    <path d="M46 14h12v62h34v12H46z" fill="#E3B341"/>
    <g stroke="#8A6A1C" stroke-width="2">
      <path d="M58 22h-5M58 30h-8M58 38h-5M58 46h-8M58 54h-5M58 62h-8"/>
      <path d="M66 76v-5M74 76v-8M82 76v-5"/>
    </g>
  </g>
  <!-- 道具箱 -->
  <path d="M20 66h88v38a6 6 0 0 1-6 6H26a6 6 0 0 1-6-6z" fill="#C8894B"/>
  <rect x="20" y="62" width="88" height="12" rx="3" fill="#A86F38"/>
  <path d="M20 88h88" stroke="#A86F38" stroke-width="3"/>
  <rect x="56" y="80" width="16" height="10" rx="2" fill="#6B4A2A"/>
</svg>
