<svg xmlns="http://www.w3.org/2000/svg" viewBox="0 0 128 128">
  <title>2. 緑の画面の道具箱</title>
  <rect width="128" height="128" rx="24" fill="#1B1F24"/>
  <!-- 取っ手 -->
  <path d="M44 40V30a6 6 0 0 1 6-6h28a6 6 0 0 1 6 6v10" fill="none" stroke="#9AA4AE" stroke-width="7" stroke-linecap="round"/>
  <!-- 箱（鋼） -->
  <rect x="14" y="38" width="100" height="74" rx="9" fill="#6E7B88"/>
  <rect x="14" y="38" width="100" height="10" rx="5" fill="#8894A0"/>
  <!-- 5250 の画面 -->
  <rect x="24" y="54" width="80" height="48" rx="4" fill="#07120A"/>
  <g fill="#39D353">
    <rect x="30" y="61" width="30" height="5" rx="1"/>
    <rect x="64" y="61" width="14" height="5" rx="1"/>
    <rect x="30" y="71" width="18" height="5" rx="1"/>
    <rect x="52" y="71" width="34" height="5" rx="1"/>
    <rect x="30" y="81" width="24" height="5" rx="1"/>
    <rect x="30" y="91" width="8" height="6"/>
  </g>
</svg>
