<svg xmlns="http://www.w3.org/2000/svg" viewBox="0 0 128 128">
  <title>4. 差し金の角</title>
  <rect width="128" height="128" rx="24" fill="#2B2F36"/>
  <!-- L 字の差し金 -->
  <path d="M22 18h18v70h70v18H22z" fill="#E3B341"/>
  <g stroke="#7A5A14" stroke-width="2.5" stroke-linecap="round">
    <path d="M40 26h-6M40 34h-10M40 42h-6M40 50h-10M40 58h-6M40 66h-10M40 74h-6"/>
    <path d="M48 88v-6M56 88v-10M64 88v-6M72 88v-10M80 88v-6M88 88v-10M96 88v-6"/>
  </g>
  <!-- 角の内側の小さな箱 -->
  <rect x="50" y="52" width="30" height="26" rx="3" fill="#C8894B"/>
  <rect x="50" y="52" width="30" height="7" rx="2" fill="#A86F38"/>
</svg>
