<svg xmlns="http://www.w3.org/2000/svg" viewBox="0 0 128 128">
  <title>12. 道具箱の中の枡目（取っ手付き）</title>
  <rect width="128" height="128" rx="24" fill="#243447"/>
  <!-- 取っ手 -->
  <path d="M44 38V29a6 6 0 0 1 6-6h28a6 6 0 0 1 6 6v9" fill="none" stroke="#E3B341" stroke-width="7" stroke-linecap="round"/>
  <!-- 道具箱 -->
  <rect x="10" y="36" width="108" height="78" rx="9" fill="#C8894B"/>
  <rect x="10" y="36" width="108" height="11" rx="5" fill="#A86F38"/>
  <!-- 正面の枡目（1 マス = 1 桁） -->
  <rect x="20" y="54" width="88" height="50" rx="4" fill="#0F1D15"/>
  <g stroke="#23533A" stroke-width="1.8" fill="none">
    <path d="M20 70.7h88M20 87.3h88"/>
    <path d="M34.7 54v50M49.3 54v50M64 54v50M78.7 54v50M93.3 54v50"/>
  </g>
  <!-- { 全角 1 字（2 マス） } -->
  <rect x="51" y="73.5" width="26" height="11" rx="1.5" fill="#39D353"/>
  <g fill="none" stroke="#39D353" stroke-width="3.2" stroke-linecap="round" stroke-linejoin="round">
    <path d="M45 72c-3.5 0-3.5 2.5-3.5 4.5 0 2-1.2 2.5-3.5 2.5 2.3 0 3.5 0.5 3.5 2.5 0 2 0 4.5 3.5 4.5"/>
    <path d="M83 72c3.5 0 3.5 2.5 3.5 4.5 0 2 1.2 2.5 3.5 2.5-2.3 0-3.5 0.5-3.5 2.5 0 2 0 4.5-3.5 4.5"/>
  </g>
</svg>
