<svg xmlns="http://www.w3.org/2000/svg" viewBox="0 0 128 128">
  <title>16. 道具箱の緑の画面（道具 4 本）</title>
  <rect width="128" height="128" rx="24" fill="#243447"/>
  <!-- 差し金（左端） -->
  <g transform="rotate(-26 64 64)">
    <path d="M34 6h10v56h28v10H34z" fill="#E3B341"/>
    <g stroke="#8A6A1C" stroke-width="2">
      <path d="M44 14h-5M44 22h-7M44 30h-5M44 38h-7M44 46h-5"/>
    </g>
  </g>
  <!-- 赤鉛筆（中央左） -->
  <g transform="rotate(-6 54 32)">
    <rect x="49" y="22" width="10" height="32" fill="#D23B2A"/>
    <rect x="53" y="22" width="2" height="32" fill="#A82A1C"/>
    <path d="M49 22l5-10 5 10z" fill="#E8C49A"/>
    <path d="M52.3 15.5l1.7-3.5 1.7 3.5z" fill="#2B2F36"/>
  </g>
  <!-- ドライバー（中央右） -->
  <g transform="rotate(10 74 32)">
    <rect x="72.5" y="8" width="3" height="22" fill="#C5CCD3"/>
    <rect x="71.5" y="6" width="5" height="4" rx="1" fill="#9AA4AE"/>
    <rect x="68" y="28" width="12" height="26" rx="4" fill="#E07B39"/>
    <path d="M71 32v18M74 32v18M77 32v18" stroke="#B85E24" stroke-width="1.5"/>
  </g>
  <!-- 金槌（右端） -->
  <g transform="rotate(24 96 36)">
    <rect x="93" y="22" width="7" height="34" rx="2" fill="#8A5A2B"/>
    <rect x="82" y="14" width="29" height="11" rx="2.5" fill="#9AA4AE"/>
    <rect x="82" y="14" width="6" height="11" rx="2" fill="#7B8591"/>
  </g>
  <!-- 木の道具箱 -->
  <rect x="12" y="48" width="104" height="66" rx="7" fill="#C8894B"/>
  <rect x="12" y="46" width="104" height="11" rx="4" fill="#A86F38"/>
  <!-- 正面の 5250 の画面 -->
  <rect x="22" y="62" width="84" height="44" rx="3" fill="#07120A"/>
  <g fill="#39D353">
    <rect x="29" y="68" width="32" height="5" rx="1"/>
    <rect x="65" y="68" width="14" height="5" rx="1"/>
    <rect x="29" y="77" width="18" height="5" rx="1"/>
    <rect x="51" y="77" width="36" height="5" rx="1"/>
    <rect x="29" y="86" width="26" height="5" rx="1"/>
    <rect x="29" y="95" width="8" height="6"/>
  </g>
</svg>
